<?xml version="1.0" encoding="utf-8"?>
<!-- Generator: Adobe Illustrator 19.0.0, SVG Export Plug-In . SVG Version: 6.00 Build 0)  -->
<svg version="1.1" id="Layer_1" focusable="false" xmlns="http://www.w3.org/2000/svg" xmlns:xlink="http://www.w3.org/1999/xlink"
	 x="0px" y="0px" viewBox="-41 164.9 512 512" style="enable-background:new -41 164.9 512 512;" xml:space="preserve">
<style type="text/css">
	.st0{fill:#FDB515;}
</style>
<path class="st0" d="M-33,420.9c0-137,111-248,248-248s248,111,248,248s-111,248-248,248S-33,557.9-33,420.9z M110.6,449.8
	l72.4-75.5v182.6c0,13.3,10.7,24,24,24h16c13.3,0,24-10.7,24-24V374.3l72.4,75.5c9.3,9.7,24.8,9.9,34.3,0.4l10.9-11
	c9.4-9.4,9.4-24.6,0-33.9L232,272.6c-9.4-9.4-24.6-9.4-33.9,0L65.3,405.3c-9.4,9.4-9.4,24.6,0,33.9l10.9,11
	C85.8,459.7,101.3,459.5,110.6,449.8z"/>
</svg>
